<?xml version="1.0" standalone="no"?>
<!DOCTYPE svg PUBLIC "-//W3C//DTD SVG 20010904//EN"
 "http://www.w3.org/TR/2001/REC-SVG-20010904/DTD/svg10.dtd">
<svg version="1.0" xmlns="http://www.w3.org/2000/svg"
 width="1000.000000pt" height="1000.000000pt" viewBox="0 0 1000.000000 1000.000000"
 preserveAspectRatio="xMidYMid meet">

<g transform="translate(0.000000,1000.000000) scale(0.100000,-0.100000)"
fill="#006fff" stroke="none">
<path d="M2645 8770 c-106 -23 -181 -66 -250 -141 -53 -58 -79 -101 -110 -184
-58 -153 -60 -174 -60 -636 l0 -427 -80 -83 c-193 -201 -308 -458 -322 -717
l-6 -112 -46 26 c-25 15 -124 78 -220 141 -214 141 -257 163 -315 163 -102 0
-154 -99 -220 -425 -55 -272 -97 -623 -117 -993 -13 -245 -7 -1050 10 -1262
54 -667 134 -1037 292 -1355 94 -190 177 -303 344 -471 296 -297 605 -487
1350 -828 583 -268 806 -382 1275 -651 353 -203 371 -213 589 -329 154 -81
177 -89 259 -84 70 4 78 7 282 116 137 73 322 177 520 292 423 245 728 401
1305 665 727 334 1036 524 1330 819 167 168 250 281 344 471 158 318 238 688
292 1355 17 212 23 1017 10 1262 -20 370 -62 721 -117 993 -66 326 -118 425
-220 425 -58 0 -101 -22 -315 -163 -96 -63 -195 -126 -220 -141 l-46 -26 -6
112 c-14 259 -129 516 -322 717 l-80 83 0 427 c0 462 -2 483 -60 636 -57 154
-156 257 -293 307 -88 32 -247 30 -367 -6 -284 -85 -629 -334 -896 -644 l-54
-63 -115 30 c-141 37 -519 106 -659 120 -133 14 -529 14 -662 0 -140 -14 -518
-83 -659 -120 l-115 -30 -54 63 c-268 311 -617 562 -895 643 -98 28 -236 40
-301 25z m290 -292 c180 -67 398 -221 593 -416 67 -67 122 -129 122 -137 0 -8
-12 -21 -27 -29 -108 -56 -124 -189 -30 -246 50 -31 90 -25 228 35 344 147
843 255 1179 255 336 0 835 -108 1179 -255 138 -60 178 -66 228 -35 94 57 78
190 -29 246 -16 8 -28 21 -28 29 0 8 55 70 123 137 262 264 554 440 754 455
90 7 148 -12 194 -64 94 -107 115 -278 98 -783 -6 -179 -8 -344 -4 -368 7 -44
8 -46 124 -149 167 -149 282 -397 282 -611 0 -112 -16 -152 -88 -226 -51 -51
-148 -99 -1183 -591 -986 -469 -1361 -676 -1564 -866 -40 -38 -79 -69 -86 -69
-7 0 -46 31 -86 69 -203 190 -578 397 -1564 866 -1035 492 -1132 540 -1183
591 -72 74 -88 114 -88 226 0 214 115 462 282 611 116 103 117 105 124 149 4
24 2 189 -4 368 -17 500 4 672 95 779 69 82 193 92 359 29z m-1325 -2190 c69
-42 189 -108 268 -147 140 -70 968 -469 1332 -641 893 -423 1219 -596 1435
-760 107 -81 329 -296 339 -327 4 -13 11 -23 16 -23 5 0 12 10 16 23 10 31
232 246 339 327 216 164 542 337 1435 760 364 172 1192 571 1332 641 151 76
335 183 481 281 58 39 89 55 92 46 13 -40 58 -279 79 -429 96 -671 103 -1565
16 -2284 -59 -488 -152 -785 -325 -1046 -74 -112 -231 -280 -349 -375 -113
-92 -334 -237 -509 -334 -155 -85 -180 -98 -762 -372 -604 -284 -842 -414
-1478 -809 l-367 -229 -368 229 c-591 368 -872 523 -1367 756 -148 70 -367
173 -485 229 -377 178 -688 362 -896 530 -117 94 -274 263 -349 375 -173 261
-266 558 -325 1046 -87 719 -80 1613 16 2284 21 150 66 389 79 429 3 9 34 -7
92 -46 49 -33 144 -93 213 -134z"/>
<path d="M3653 6395 c-147 -45 -250 -174 -261 -325 -10 -143 59 -254 202 -324
219 -106 444 -40 543 161 34 68 38 85 38 152 -1 206 -167 352 -399 350 -45 0
-100 -6 -123 -14z"/>
<path d="M6079 6392 c-106 -35 -181 -102 -228 -202 -20 -43 -25 -71 -26 -131
0 -67 4 -84 38 -152 57 -116 151 -186 275 -206 189 -30 407 86 457 244 52 167
-37 356 -203 433 -76 35 -228 42 -313 14z"/>
</g>
</svg>
