<?xml version="1.0" standalone="no"?>
<!DOCTYPE svg PUBLIC "-//W3C//DTD SVG 20010904//EN"
 "http://www.w3.org/TR/2001/REC-SVG-20010904/DTD/svg10.dtd">
<svg version="1.0" xmlns="http://www.w3.org/2000/svg"
 width="403.000000pt" height="403.000000pt" viewBox="0 0 403.000000 403.000000"
 preserveAspectRatio="xMidYMid meet">

<g transform="translate(0.000000,403.000000) scale(0.100000,-0.100000)"
fill="#006fff" stroke="none">
<path d="M2985 2827 c-44 -17 -251 -134 -269 -153 -19 -19 -21 -53 -3 -59 6
-2 31 -9 55 -15 39 -10 42 -13 42 -45 0 -19 5 -57 11 -84 10 -47 9 -53 -15
-84 -14 -19 -26 -38 -26 -44 0 -6 -20 -18 -44 -27 -86 -33 -164 -145 -150
-215 l6 -26 -334 3 c-183 1 -679 -1 -1103 -5 -856 -9 -799 -4 -835 -79 -36
-74 -21 -169 35 -212 l28 -22 1632 0 1632 0 28 22 c56 43 71 138 35 212 -32
67 -43 70 -250 77 -102 3 -180 6 -174 7 26 5 107 88 131 136 21 41 26 65 26
121 0 120 -34 198 -69 163 -13 -13 -14 -22 -5 -54 16 -58 14 -161 -5 -199 -8
-18 -37 -54 -62 -78 -26 -25 -55 -56 -65 -71 -24 -35 -46 -33 -86 9 -45 48
-80 46 -107 -6 -20 -40 -63 -40 -96 0 -13 15 -37 36 -52 46 -15 10 -36 35 -47
56 -29 58 -24 113 15 163 15 18 17 18 77 1 61 -17 142 -15 154 4 2 5 -20 11
-51 15 -65 7 -127 37 -149 70 -25 37 -30 115 -12 177 35 120 142 174 272 138
38 -11 106 -71 145 -128 14 -21 16 -21 38 -6 l22 16 -22 41 c-31 55 -99 113
-155 132 -54 18 -154 20 -198 3z m-160 -166 c-3 -6 -14 -11 -23 -11 -15 1 -15
2 2 15 21 16 32 13 21 -4z m-55 -411 c0 -30 26 -87 55 -122 37 -44 31 -79 -16
-95 -51 -16 -107 -2 -141 37 -45 50 -32 100 44 164 48 41 58 44 58 16z m-89
-260 c57 -25 124 -26 172 0 35 19 56 20 391 20 195 0 366 -4 379 -9 45 -17 62
-110 28 -152 l-19 -24 -1617 -1 -1616 -1 -20 25 c-32 42 -17 135 25 152 11 5
519 9 1127 9 1082 1 1108 1 1150 -19z"/>
<path d="M577 1970 c-142 -4 -160 -7 -173 -24 -19 -27 -18 -42 6 -66 19 -19
33 -20 461 -20 438 0 470 2 491 34 13 19 9 45 -12 66 -19 19 -32 20 -317 18
-164 -1 -369 -4 -456 -8z"/>
<path d="M3067 2754 c-22 -22 6 -115 38 -128 49 -18 138 14 133 49 -3 21 -7
21 -79 9 -36 -6 -37 -5 -46 32 -8 36 -30 54 -46 38z"/>
<path d="M3360 2632 c-33 -28 -35 -52 -5 -52 22 0 79 55 71 68 -11 19 -29 14
-66 -16z"/>
<path d="M3361 2556 c-10 -12 -9 -16 6 -23 27 -13 98 -1 98 17 0 21 -87 27
-104 6z"/>
<path d="M3069 2544 c-16 -20 0 -49 27 -49 35 0 28 64 -7 65 -4 0 -12 -7 -20
-16z"/>
<path d="M2894 2536 c-10 -26 4 -48 28 -44 17 2 23 10 23 28 0 18 -6 26 -23
28 -13 2 -25 -3 -28 -12z"/>
<path d="M2034 1705 c-7 -18 3 -35 21 -35 18 0 26 25 12 39 -15 15 -27 14 -33
-4z"/>
<path d="M1322 1598 l3 -103 65 0 c51 0 65 3 65 15 0 11 -13 16 -47 18 l-48 3
0 85 c0 78 -1 84 -20 84 -20 0 -21 -5 -18 -102z"/>
<path d="M1950 1665 c0 -38 -2 -40 -30 -25 -46 25 -99 -37 -85 -99 8 -36 27
-53 57 -52 13 0 40 1 61 1 l37 1 0 104 c0 98 -1 105 -20 105 -16 0 -20 -7 -20
-35z m-16 -61 c10 -4 16 -18 16 -39 0 -32 -13 -45 -45 -45 -23 0 -36 35 -25
64 10 26 24 31 54 20z"/>
<path d="M1520 1637 c-32 -16 -52 -59 -44 -91 15 -63 98 -82 140 -32 30 34 30
68 2 100 -28 31 -65 40 -98 23z m57 -35 c24 -15 19 -69 -7 -77 -26 -8 -50 11
-50 39 0 36 29 56 57 38z"/>
<path d="M1697 1638 c-39 -14 -28 -33 19 -33 27 0 39 -5 42 -16 2 -12 -5 -14
-33 -11 -19 2 -42 -1 -50 -8 -41 -34 10 -105 59 -82 13 6 33 8 45 5 20 -5 21
-1 21 60 0 40 -5 69 -13 75 -20 17 -60 22 -90 10z m58 -103 c0 -13 -8 -21 -23
-23 -26 -4 -42 25 -21 39 22 14 44 6 44 -16z"/>
<path d="M2197 1644 c-4 -4 -24 -7 -44 -8 l-38 -1 0 -70 c0 -58 3 -70 18 -73
14 -3 17 4 17 45 0 51 12 73 41 73 21 0 29 -20 29 -77 0 -37 3 -44 18 -41 28
5 30 110 2 138 -21 21 -32 24 -43 14z"/>
<path d="M2330 1637 c-16 -8 -28 -26 -34 -50 -8 -31 -6 -42 11 -65 22 -30 66
-40 89 -21 11 9 14 8 14 -4 0 -24 -26 -39 -62 -35 -41 4 -49 -13 -14 -30 32
-16 91 -1 106 28 6 10 10 55 10 99 l0 81 -32 -2 c-18 -1 -40 2 -48 5 -8 4 -26
1 -40 -6z m64 -33 c23 -9 21 -61 -3 -74 -15 -7 -25 -5 -42 9 -21 16 -22 22
-11 45 12 26 27 31 56 20z"/>
<path d="M2034 1626 c-3 -7 -4 -40 -2 -72 2 -47 7 -59 21 -62 15 -3 17 6 17
72 0 62 -3 76 -15 76 -9 0 -18 -6 -21 -14z"/>
<path d="M2663 1533 c-18 -6 -16 -40 1 -46 8 -3 20 1 27 9 10 12 9 18 -2 28
-8 8 -20 12 -26 9z"/>
<path d="M2485 1520 c-9 -15 14 -40 31 -33 22 8 18 43 -5 43 -11 0 -23 -5 -26
-10z"/>
<path d="M2815 1520 c-9 -15 14 -40 31 -33 22 8 18 43 -5 43 -11 0 -23 -5 -26
-10z"/>
</g>
</svg>
